<svg xmlns="http://www.w3.org/2000/svg" xmlns:xlink="http://www.w3.org/1999/xlink" width="80" zoomAndPan="magnify" viewBox="0 0 60 60" height="80" preserveAspectRatio="xMidYMid meet" version="1.0"><defs><clipPath id="807a9d8810"><path d="M 0 0.488281 L 60 0.488281 L 60 59.738281 L 0 59.738281 Z M 0 0.488281 " clip-rule="nonzero"/></clipPath></defs><path fill="#ffd773" d="M 45.570312 30.113281 C 45.570312 31.121094 45.46875 32.125 45.269531 33.113281 C 45.070312 34.105469 44.777344 35.066406 44.386719 36 C 43.992188 36.933594 43.515625 37.820312 42.945312 38.660156 C 42.378906 39.503906 41.734375 40.28125 41.011719 40.992188 C 40.285156 41.707031 39.5 42.347656 38.652344 42.90625 C 37.800781 43.46875 36.902344 43.941406 35.957031 44.328125 C 35.015625 44.714844 34.039062 45.007812 33.039062 45.207031 C 32.035156 45.402344 31.023438 45.5 30 45.5 C 28.976562 45.5 27.964844 45.402344 26.960938 45.207031 C 25.960938 45.007812 24.984375 44.714844 24.042969 44.328125 C 23.097656 43.941406 22.199219 43.46875 21.347656 42.90625 C 20.5 42.347656 19.714844 41.707031 18.988281 40.992188 C 18.265625 40.28125 17.621094 39.503906 17.054688 38.660156 C 16.484375 37.820312 16.007812 36.933594 15.613281 36 C 15.222656 35.066406 14.929688 34.105469 14.730469 33.113281 C 14.53125 32.125 14.429688 31.121094 14.429688 30.113281 C 14.429688 29.101562 14.53125 28.101562 14.730469 27.109375 C 14.929688 26.121094 15.222656 25.15625 15.613281 24.222656 C 16.007812 23.289062 16.484375 22.402344 17.054688 21.5625 C 17.621094 20.722656 18.265625 19.945312 18.988281 19.230469 C 19.714844 18.515625 20.5 17.878906 21.347656 17.316406 C 22.199219 16.753906 23.097656 16.28125 24.042969 15.894531 C 24.984375 15.507812 25.960938 15.214844 26.960938 15.019531 C 27.964844 14.824219 28.976562 14.722656 30 14.722656 C 31.023438 14.722656 32.035156 14.824219 33.039062 15.019531 C 34.039062 15.214844 35.015625 15.507812 35.957031 15.894531 C 36.902344 16.28125 37.800781 16.753906 38.652344 17.316406 C 39.5 17.878906 40.285156 18.515625 41.011719 19.230469 C 41.734375 19.945312 42.378906 20.722656 42.945312 21.5625 C 43.515625 22.402344 43.992188 23.289062 44.386719 24.222656 C 44.777344 25.15625 45.070312 26.121094 45.269531 27.109375 C 45.46875 28.101562 45.570312 29.101562 45.570312 30.113281 Z M 45.570312 30.113281 " fill-opacity="1" fill-rule="nonzero"/><g clip-path="url(#807a9d8810)"><path fill="#d1a12a" d="M 30 10.910156 C 29.546875 10.910156 29.191406 10.550781 29.191406 10.097656 L 29.191406 1.300781 C 29.191406 0.84375 29.546875 0.488281 30 0.488281 C 30.453125 0.488281 30.808594 0.84375 30.808594 1.300781 L 30.808594 10.097656 C 30.808594 10.535156 30.4375 10.910156 30 10.910156 Z M 30.808594 58.925781 L 30.808594 50.128906 C 30.808594 49.671875 30.453125 49.316406 30 49.316406 C 29.546875 49.316406 29.191406 49.671875 29.191406 50.128906 L 29.191406 58.925781 C 29.191406 59.378906 29.546875 59.738281 30 59.738281 C 30.453125 59.738281 30.808594 59.378906 30.808594 58.925781 Z M 10.53125 30.113281 C 10.53125 29.65625 10.175781 29.300781 9.722656 29.300781 L 0.832031 29.300781 C 0.378906 29.300781 0.0234375 29.65625 0.0234375 30.113281 C 0.0234375 30.566406 0.378906 30.925781 0.832031 30.925781 L 9.722656 30.925781 C 10.175781 30.925781 10.53125 30.566406 10.53125 30.113281 Z M 59.976562 30.113281 C 59.976562 29.65625 59.621094 29.300781 59.167969 29.300781 L 50.277344 29.300781 C 49.824219 29.300781 49.46875 29.65625 49.46875 30.113281 C 49.46875 30.566406 49.824219 30.925781 50.277344 30.925781 L 59.167969 30.925781 C 59.621094 30.925781 59.976562 30.566406 59.976562 30.113281 Z M 16.242188 16.527344 C 16.546875 16.199219 16.546875 15.699219 16.222656 15.375 L 9.933594 9.15625 C 9.609375 8.847656 9.109375 8.847656 8.785156 9.171875 C 8.480469 9.496094 8.480469 10 8.804688 10.324219 L 15.09375 16.542969 C 15.253906 16.703125 15.449219 16.769531 15.660156 16.769531 C 15.867188 16.769531 16.078125 16.6875 16.242188 16.527344 Z M 51.195312 51.070312 C 51.503906 50.746094 51.503906 50.242188 51.179688 49.917969 L 44.890625 43.699219 C 44.566406 43.390625 44.066406 43.390625 43.742188 43.714844 C 43.4375 44.039062 43.4375 44.542969 43.757812 44.867188 L 50.050781 51.085938 C 50.210938 51.246094 50.40625 51.3125 50.613281 51.3125 C 50.824219 51.3125 51.035156 51.230469 51.195312 51.070312 Z M 9.933594 51.070312 L 16.222656 44.851562 C 16.546875 44.542969 16.546875 44.023438 16.242188 43.699219 C 15.933594 43.375 15.414062 43.375 15.09375 43.683594 L 8.804688 49.917969 C 8.480469 50.226562 8.480469 50.746094 8.785156 51.070312 C 8.949219 51.230469 9.160156 51.3125 9.367188 51.3125 C 9.578125 51.3125 9.773438 51.230469 9.933594 51.070312 Z M 44.890625 16.542969 L 51.179688 10.324219 C 51.503906 10.015625 51.503906 9.496094 51.195312 9.171875 C 50.890625 8.847656 50.371094 8.847656 50.050781 9.15625 L 43.757812 15.375 C 43.4375 15.679688 43.4375 16.199219 43.742188 16.527344 C 43.90625 16.6875 44.117188 16.769531 44.324219 16.769531 C 44.535156 16.769531 44.746094 16.6875 44.890625 16.542969 Z M 22.53125 12.320312 C 22.933594 12.144531 23.128906 11.671875 22.964844 11.265625 L 21.382812 7.484375 C 21.203125 7.078125 20.734375 6.882812 20.316406 7.046875 C 19.910156 7.222656 19.714844 7.695312 19.878906 8.101562 L 21.464844 11.882812 C 21.59375 12.191406 21.898438 12.386719 22.207031 12.386719 C 22.335938 12.386719 22.433594 12.371094 22.53125 12.320312 Z M 39.667969 53.195312 C 40.074219 53.015625 40.265625 52.546875 40.105469 52.140625 L 38.519531 48.359375 C 38.34375 47.953125 37.875 47.757812 37.453125 47.921875 C 37.050781 48.097656 36.855469 48.570312 37.015625 48.976562 L 38.601562 52.757812 C 38.730469 53.066406 39.039062 53.261719 39.34375 53.261719 C 39.457031 53.261719 39.570312 53.226562 39.667969 53.195312 Z M 7.703125 40.113281 L 11.535156 38.539062 C 11.957031 38.375 12.148438 37.886719 11.972656 37.480469 C 11.808594 37.058594 11.324219 36.867188 10.921875 37.042969 L 7.089844 38.617188 C 6.667969 38.78125 6.472656 39.269531 6.652344 39.671875 C 6.78125 39.980469 7.089844 40.175781 7.394531 40.175781 C 7.492188 40.175781 7.605469 40.160156 7.703125 40.113281 Z M 49.0625 23.199219 L 52.894531 21.621094 C 53.316406 21.460938 53.507812 20.972656 53.332031 20.566406 C 53.167969 20.144531 52.683594 19.949219 52.28125 20.128906 L 48.449219 21.703125 C 48.027344 21.867188 47.835938 22.351562 48.011719 22.757812 C 48.140625 23.066406 48.449219 23.261719 48.753906 23.261719 C 48.867188 23.246094 48.964844 23.230469 49.0625 23.199219 Z M 38.519531 11.898438 L 40.105469 8.117188 C 40.285156 7.710938 40.089844 7.222656 39.667969 7.0625 C 39.25 6.882812 38.78125 7.078125 38.601562 7.5 L 37.015625 11.28125 C 36.839844 11.6875 37.035156 12.175781 37.453125 12.335938 C 37.550781 12.386719 37.664062 12.402344 37.761719 12.402344 C 38.085938 12.386719 38.390625 12.207031 38.519531 11.898438 Z M 21.382812 52.757812 L 22.964844 48.976562 C 23.144531 48.570312 22.949219 48.082031 22.53125 47.921875 C 22.109375 47.742188 21.640625 47.9375 21.464844 48.359375 L 19.878906 52.140625 C 19.699219 52.546875 19.894531 53.035156 20.316406 53.195312 C 20.410156 53.246094 20.523438 53.261719 20.621094 53.261719 C 20.945312 53.261719 21.253906 53.066406 21.382812 52.757812 Z M 11.988281 22.742188 C 12.148438 22.320312 11.957031 21.851562 11.550781 21.6875 L 7.71875 20.113281 C 7.300781 19.949219 6.832031 20.144531 6.667969 20.550781 C 6.507812 20.972656 6.699219 21.445312 7.105469 21.605469 L 10.9375 23.179688 C 11.035156 23.230469 11.148438 23.246094 11.246094 23.246094 C 11.550781 23.246094 11.859375 23.050781 11.988281 22.742188 Z M 53.347656 39.671875 C 53.507812 39.25 53.316406 38.78125 52.910156 38.617188 L 49.0625 37.042969 C 48.640625 36.882812 48.171875 37.078125 48.011719 37.480469 C 47.851562 37.902344 48.042969 38.375 48.449219 38.539062 L 52.28125 40.113281 C 52.378906 40.160156 52.492188 40.175781 52.585938 40.175781 C 52.910156 40.175781 53.21875 39.980469 53.347656 39.671875 Z M 53.347656 39.671875 " fill-opacity="1" fill-rule="nonzero"/></g></svg>