<svg xmlns="http://www.w3.org/2000/svg" xmlns:xlink="http://www.w3.org/1999/xlink" width="80" zoomAndPan="magnify" viewBox="0 0 60 60" height="80" preserveAspectRatio="xMidYMid meet" version="1.0"><defs><clipPath id="43a65aabd9"><path d="M 37 1.085938 L 60 1.085938 L 60 24 L 37 24 Z M 37 1.085938 " clip-rule="nonzero"/></clipPath><clipPath id="21cc4a1409"><path d="M 16 38 L 19 38 L 19 58.835938 L 16 58.835938 Z M 16 38 " clip-rule="nonzero"/></clipPath><clipPath id="29e06375e4"><path d="M 27 38 L 30 38 L 30 58.835938 L 27 58.835938 Z M 27 38 " clip-rule="nonzero"/></clipPath><clipPath id="75e6619daf"><path d="M 38 38 L 42 38 L 42 58.835938 L 38 58.835938 Z M 38 38 " clip-rule="nonzero"/></clipPath></defs><g clip-path="url(#43a65aabd9)"><path fill="#d9d9d9" d="M 59.453125 15.359375 C 59.207031 15.0625 58.824219 14.925781 58.453125 14.988281 C 57.972656 15.0625 57.453125 15.105469 56.929688 15.105469 C 54.460938 15.105469 52.148438 14.148438 50.402344 12.402344 C 48.65625 10.660156 47.699219 8.339844 47.707031 5.875 C 47.707031 4.714844 47.910156 3.609375 48.304688 2.585938 C 48.441406 2.234375 48.378906 1.832031 48.132812 1.535156 C 47.890625 1.238281 47.515625 1.097656 47.132812 1.152344 C 41.636719 2.054688 37.636719 6.765625 37.625 12.339844 C 37.625 12.796875 37.65625 13.265625 37.71875 13.765625 C 37.785156 14.265625 38.199219 14.605469 38.667969 14.660156 L 38.878906 16.265625 L 42.800781 23.910156 L 51.59375 22.773438 C 51.796875 22.984375 52.0625 23.113281 52.363281 23.113281 C 52.480469 23.113281 52.585938 23.09375 52.703125 23.058594 C 55.886719 21.976562 58.398438 19.550781 59.613281 16.402344 C 59.761719 16.0625 59.6875 15.65625 59.453125 15.359375 Z M 59.453125 15.359375 " fill-opacity="1" fill-rule="nonzero"/></g><path fill="#737373" d="M 44.023438 18.679688 C 41.308594 12.816406 35.496094 9.074219 28.957031 9.074219 C 22.429688 9.074219 16.613281 12.816406 13.898438 18.667969 C 13.429688 18.613281 12.972656 18.570312 12.515625 18.570312 C 5.722656 18.570312 0.207031 24.089844 0.207031 30.867188 C 0.207031 37.652344 5.734375 43.160156 12.515625 43.160156 L 45.398438 43.160156 C 52.191406 43.160156 57.707031 37.640625 57.707031 30.867188 C 57.707031 23.644531 51.390625 17.816406 44.023438 18.679688 Z M 44.023438 18.679688 " fill-opacity="1" fill-rule="nonzero"/><g clip-path="url(#21cc4a1409)"><path fill="#5ce1e6" d="M 17.296875 38.597656 C 16.710938 38.597656 16.230469 39.078125 16.230469 39.660156 L 16.230469 57.828125 C 16.230469 58.410156 16.710938 58.890625 17.296875 58.890625 C 17.882812 58.890625 18.363281 58.410156 18.363281 57.828125 L 18.363281 39.660156 C 18.363281 39.078125 17.882812 38.597656 17.296875 38.597656 Z M 17.296875 38.597656 " fill-opacity="1" fill-rule="nonzero"/></g><path fill="#5ce1e6" d="M 22.984375 34.058594 C 22.398438 34.058594 21.917969 34.535156 21.917969 35.121094 L 21.917969 53.285156 C 21.917969 53.871094 22.398438 54.347656 22.984375 54.347656 C 23.570312 54.347656 24.046875 53.871094 24.046875 53.285156 L 24.046875 35.121094 C 24.046875 34.535156 23.570312 34.058594 22.984375 34.058594 Z M 22.984375 34.058594 " fill-opacity="1" fill-rule="nonzero"/><g clip-path="url(#29e06375e4)"><path fill="#5ce1e6" d="M 28.667969 38.597656 C 28.082031 38.597656 27.605469 39.078125 27.605469 39.660156 L 27.605469 57.828125 C 27.605469 58.410156 28.082031 58.890625 28.667969 58.890625 C 29.253906 58.890625 29.734375 58.410156 29.734375 57.828125 L 29.734375 39.660156 C 29.734375 39.078125 29.253906 38.597656 28.667969 38.597656 Z M 28.667969 38.597656 " fill-opacity="1" fill-rule="nonzero"/></g><path fill="#5ce1e6" d="M 34.34375 34.058594 C 33.757812 34.058594 33.28125 34.535156 33.28125 35.121094 L 33.28125 53.285156 C 33.28125 53.871094 33.757812 54.347656 34.34375 54.347656 C 34.929688 54.347656 35.410156 53.871094 35.410156 53.285156 L 35.410156 35.121094 C 35.410156 34.535156 34.941406 34.058594 34.34375 34.058594 Z M 34.34375 34.058594 " fill-opacity="1" fill-rule="nonzero"/><g clip-path="url(#75e6619daf)"><path fill="#5ce1e6" d="M 40.03125 38.597656 C 39.445312 38.597656 38.964844 39.078125 38.964844 39.660156 L 38.964844 57.828125 C 38.964844 58.410156 39.445312 58.890625 40.03125 58.890625 C 40.617188 58.890625 41.09375 58.410156 41.09375 57.828125 L 41.09375 39.660156 C 41.09375 39.078125 40.628906 38.597656 40.03125 38.597656 Z M 40.03125 38.597656 " fill-opacity="1" fill-rule="nonzero"/></g><path fill="#ffffff" d="M 32.394531 12.925781 C 29.402344 12.074219 26.132812 12.371094 23.34375 13.765625 C 22.824219 14.03125 22.609375 14.667969 22.875 15.191406 C 23.066406 15.5625 23.441406 15.773438 23.824219 15.773438 C 23.984375 15.773438 24.144531 15.742188 24.304688 15.65625 C 26.613281 14.5 29.328125 14.253906 31.808594 14.957031 C 32.375 15.117188 32.960938 14.796875 33.128906 14.222656 C 33.289062 13.679688 32.960938 13.085938 32.394531 12.925781 Z M 32.394531 12.925781 " fill-opacity="1" fill-rule="nonzero"/><path fill="#ffffff" d="M 20.066406 16.148438 L 19.980469 16.230469 C 19.808594 16.414062 19.640625 16.59375 19.46875 16.785156 C 19.085938 17.230469 19.140625 17.902344 19.585938 18.285156 C 19.789062 18.453125 20.03125 18.539062 20.277344 18.539062 C 20.578125 18.539062 20.875 18.414062 21.085938 18.167969 C 21.226562 18.007812 21.363281 17.859375 21.511719 17.710938 L 21.585938 17.636719 C 22.003906 17.222656 21.992188 16.539062 21.578125 16.136719 C 21.160156 15.722656 20.480469 15.730469 20.066406 16.148438 Z M 20.066406 16.148438 " fill-opacity="1" fill-rule="nonzero"/><path fill="#ffffff" d="M 16.050781 22.71875 C 15.390625 22.421875 14.699219 22.210938 14.007812 22.09375 C 10.738281 21.496094 7.617188 22.6875 5.574219 25.101562 C 5.1875 25.546875 5.242188 26.21875 5.699219 26.601562 C 5.902344 26.773438 6.148438 26.855469 6.394531 26.855469 C 6.691406 26.855469 7 26.730469 7.203125 26.484375 C 8.5 24.953125 10.394531 24.082031 12.398438 24.082031 C 12.804688 24.082031 13.195312 24.125 13.632812 24.199219 C 14.164062 24.292969 14.699219 24.453125 15.1875 24.675781 C 15.730469 24.910156 16.359375 24.675781 16.59375 24.144531 C 16.828125 23.59375 16.582031 22.953125 16.050781 22.71875 Z M 16.050781 22.71875 " fill-opacity="1" fill-rule="nonzero"/><path fill="#ffffff" d="M 4.914062 28.15625 C 4.335938 28.027344 3.773438 28.398438 3.644531 28.972656 C 3.507812 29.589844 3.441406 30.238281 3.441406 30.878906 C 3.441406 31.460938 3.921875 31.941406 4.507812 31.941406 C 5.09375 31.941406 5.574219 31.460938 5.574219 30.878906 C 5.574219 30.386719 5.625 29.898438 5.734375 29.421875 C 5.851562 28.847656 5.488281 28.28125 4.914062 28.15625 Z M 4.914062 28.15625 " fill-opacity="1" fill-rule="nonzero"/></svg>