<svg xmlns="http://www.w3.org/2000/svg" xmlns:xlink="http://www.w3.org/1999/xlink" width="80" zoomAndPan="magnify" viewBox="0 0 60 60" height="80" preserveAspectRatio="xMidYMid meet" version="1.0"><defs><clipPath id="888af04aef"><path d="M 36 0.449219 L 38 0.449219 L 38 7 L 36 7 Z M 36 0.449219 " clip-rule="nonzero"/></clipPath><clipPath id="77156ee4b2"><path d="M 23 52 L 29 52 L 29 59.699219 L 23 59.699219 Z M 23 52 " clip-rule="nonzero"/></clipPath><clipPath id="95b5c01570"><path d="M 11 52 L 17 52 L 17 59.699219 L 11 59.699219 Z M 11 52 " clip-rule="nonzero"/></clipPath><clipPath id="f58731c421"><path d="M 35 52 L 41 52 L 41 59.699219 L 35 59.699219 Z M 35 52 " clip-rule="nonzero"/></clipPath></defs><path fill="#e9a648" d="M 50.769531 23.597656 C 50.769531 24.507812 50.683594 25.410156 50.503906 26.304688 C 50.328125 27.199219 50.066406 28.066406 49.71875 28.910156 C 49.371094 29.75 48.941406 30.550781 48.4375 31.308594 C 47.933594 32.066406 47.359375 32.769531 46.714844 33.414062 C 46.074219 34.054688 45.375 34.632812 44.617188 35.136719 C 43.863281 35.644531 43.066406 36.070312 42.226562 36.421875 C 41.386719 36.769531 40.519531 37.03125 39.628906 37.210938 C 38.738281 37.386719 37.835938 37.476562 36.925781 37.476562 C 36.019531 37.476562 35.117188 37.386719 34.226562 37.210938 C 33.335938 37.03125 32.46875 36.769531 31.628906 36.421875 C 30.789062 36.070312 29.992188 35.644531 29.238281 35.136719 C 28.480469 34.632812 27.78125 34.054688 27.140625 33.414062 C 26.496094 32.769531 25.921875 32.066406 25.417969 31.308594 C 24.910156 30.550781 24.484375 29.75 24.136719 28.910156 C 23.789062 28.066406 23.527344 27.199219 23.351562 26.304688 C 23.171875 25.410156 23.085938 24.507812 23.085938 23.597656 C 23.085938 22.6875 23.171875 21.785156 23.351562 20.890625 C 23.527344 19.996094 23.789062 19.128906 24.136719 18.285156 C 24.484375 17.445312 24.910156 16.644531 25.417969 15.886719 C 25.921875 15.128906 26.496094 14.429688 27.140625 13.785156 C 27.78125 13.140625 28.480469 12.5625 29.238281 12.058594 C 29.992188 11.550781 30.789062 11.125 31.628906 10.773438 C 32.46875 10.425781 33.335938 10.164062 34.226562 9.984375 C 35.117188 9.808594 36.019531 9.71875 36.925781 9.71875 C 37.835938 9.71875 38.738281 9.808594 39.628906 9.984375 C 40.519531 10.164062 41.386719 10.425781 42.226562 10.773438 C 43.066406 11.125 43.863281 11.550781 44.617188 12.058594 C 45.375 12.5625 46.074219 13.140625 46.714844 13.785156 C 47.359375 14.429688 47.933594 15.128906 48.4375 15.886719 C 48.941406 16.644531 49.371094 17.445312 49.71875 18.285156 C 50.066406 19.128906 50.328125 19.996094 50.503906 20.890625 C 50.683594 21.785156 50.769531 22.6875 50.769531 23.597656 Z M 50.769531 23.597656 " fill-opacity="1" fill-rule="nonzero"/><path fill="#d08840" d="M 49.433594 29.558594 C 49.203125 30.039062 48.949219 30.507812 48.667969 30.960938 C 48.382812 31.414062 48.074219 31.847656 47.742188 32.265625 C 47.410156 32.679688 47.054688 33.078125 46.675781 33.453125 C 46.296875 33.828125 45.898438 34.183594 45.480469 34.511719 C 45.0625 34.84375 44.625 35.148438 44.171875 35.425781 C 43.714844 35.703125 43.246094 35.957031 42.765625 36.183594 C 42.28125 36.40625 41.785156 36.601562 41.28125 36.769531 C 40.773438 36.9375 40.261719 37.078125 39.738281 37.183594 C 39.21875 37.292969 38.691406 37.371094 38.160156 37.417969 C 37.628906 37.464844 37.097656 37.484375 36.566406 37.46875 C 36.03125 37.453125 35.503906 37.410156 34.976562 37.332031 C 34.449219 37.257812 33.925781 37.152344 33.410156 37.015625 C 32.898438 36.878906 32.390625 36.714844 31.894531 36.519531 C 31.398438 36.328125 30.914062 36.105469 30.445312 35.855469 C 29.972656 35.605469 29.519531 35.328125 29.082031 35.023438 C 28.640625 34.722656 28.222656 34.394531 27.820312 34.042969 C 27.417969 33.691406 27.039062 33.316406 26.683594 32.921875 C 26.324219 32.527344 25.988281 32.109375 25.679688 31.675781 C 25.371094 31.242188 25.085938 30.792969 24.828125 30.324219 C 24.566406 29.859375 24.335938 29.378906 24.132812 28.882812 C 23.929688 28.390625 23.757812 27.886719 23.613281 27.371094 C 23.46875 26.859375 23.351562 26.335938 23.265625 25.808594 C 23.183594 25.28125 23.128906 24.753906 23.105469 24.21875 C 23.078125 23.683594 23.085938 23.152344 23.125 22.617188 C 23.160156 22.085938 23.230469 21.558594 23.328125 21.03125 C 23.425781 20.507812 23.554688 19.988281 23.710938 19.480469 C 23.871094 18.96875 24.054688 18.46875 24.273438 17.980469 C 24.488281 17.492188 24.730469 17.019531 25 16.558594 C 25.269531 16.097656 25.566406 15.65625 25.886719 15.226562 C 26.207031 14.800781 26.550781 14.394531 26.921875 14.007812 C 27.289062 13.625 27.675781 13.257812 28.085938 12.917969 C 28.496094 12.578125 28.925781 12.261719 29.371094 11.96875 C 30.125 12.144531 30.863281 12.375 31.582031 12.660156 C 32.304688 12.941406 33 13.28125 33.671875 13.667969 C 34.339844 14.054688 34.980469 14.488281 35.585938 14.972656 C 36.195312 15.453125 36.761719 15.976562 37.292969 16.542969 C 37.820312 17.109375 38.304688 17.710938 38.746094 18.351562 C 39.1875 18.988281 39.582031 19.65625 39.921875 20.351562 C 40.265625 21.046875 40.554688 21.765625 40.792969 22.503906 C 41.03125 23.242188 41.210938 23.996094 41.335938 24.761719 C 42.925781 25.0625 44.414062 25.625 45.804688 26.449219 C 47.195312 27.273438 48.40625 28.308594 49.433594 29.558594 Z M 49.433594 29.558594 " fill-opacity="1" fill-rule="nonzero"/><path fill="#000000" d="M 36.925781 38.402344 C 36.410156 38.402344 35.894531 38.375 35.378906 38.320312 C 34.863281 38.265625 34.351562 38.183594 33.847656 38.074219 C 33.339844 37.964844 32.839844 37.828125 32.347656 37.667969 C 31.855469 37.507812 31.375 37.320312 30.902344 37.105469 C 30.429688 36.894531 29.96875 36.65625 29.519531 36.394531 C 29.074219 36.132812 28.640625 35.851562 28.222656 35.542969 C 27.804688 35.238281 27.402344 34.910156 27.019531 34.558594 C 26.636719 34.210938 26.273438 33.84375 25.929688 33.453125 C 25.582031 33.066406 25.257812 32.664062 24.957031 32.242188 C 24.65625 31.820312 24.375 31.382812 24.121094 30.929688 C 23.863281 30.480469 23.632812 30.015625 23.421875 29.539062 C 23.214844 29.066406 23.035156 28.578125 22.878906 28.085938 C 22.71875 27.589844 22.589844 27.085938 22.488281 26.578125 C 22.382812 26.070312 22.304688 25.558594 22.253906 25.039062 C 22.207031 24.523438 22.183594 24.003906 22.1875 23.484375 C 22.191406 22.96875 22.222656 22.449219 22.28125 21.933594 C 22.339844 21.417969 22.425781 20.90625 22.539062 20.398438 C 22.652344 19.890625 22.789062 19.390625 22.953125 18.898438 C 23.121094 18.40625 23.308594 17.925781 23.527344 17.453125 C 23.742188 16.980469 23.980469 16.523438 24.246094 16.074219 C 24.507812 15.628906 24.796875 15.195312 25.105469 14.78125 C 25.414062 14.363281 25.742188 13.964844 26.09375 13.582031 C 26.445312 13.199219 26.816406 12.839844 27.207031 12.496094 C 27.59375 12.152344 28 11.832031 28.421875 11.53125 C 28.847656 11.234375 29.285156 10.957031 29.734375 10.703125 C 30.1875 10.449219 30.652344 10.21875 31.128906 10.015625 C 31.605469 9.808594 32.089844 9.632812 32.585938 9.476562 C 33.078125 9.324219 33.582031 9.199219 34.089844 9.097656 C 34.597656 8.996094 35.109375 8.925781 35.625 8.878906 C 36.140625 8.832031 36.660156 8.8125 37.175781 8.820312 C 37.695312 8.828125 38.210938 8.863281 38.722656 8.925781 C 39.238281 8.992188 39.746094 9.082031 40.253906 9.195312 C 40.757812 9.3125 41.253906 9.457031 41.746094 9.625 C 42.234375 9.792969 42.714844 9.988281 43.183594 10.207031 C 43.652344 10.429688 44.109375 10.671875 44.550781 10.941406 C 44.996094 11.207031 45.425781 11.5 45.835938 11.8125 C 46.25 12.125 46.648438 12.457031 47.023438 12.8125 C 47.402344 13.167969 47.761719 13.542969 48.101562 13.933594 C 48.4375 14.328125 48.757812 14.738281 49.050781 15.164062 C 49.347656 15.589844 49.621094 16.03125 49.871094 16.484375 C 50.121094 16.941406 50.34375 17.410156 50.542969 17.886719 C 50.746094 18.367188 50.917969 18.855469 51.070312 19.351562 C 51.21875 19.847656 51.339844 20.351562 51.4375 20.863281 C 51.535156 21.371094 51.601562 21.886719 51.644531 22.40625 C 51.6875 22.921875 51.703125 23.441406 51.691406 23.960938 C 51.675781 24.480469 51.636719 24.996094 51.570312 25.511719 C 51.503906 26.027344 51.410156 26.535156 51.292969 27.039062 C 51.171875 27.546875 51.023438 28.042969 50.851562 28.535156 C 50.765625 28.769531 50.605469 28.941406 50.378906 29.046875 C 50.148438 29.15625 49.917969 29.164062 49.679688 29.082031 C 49.441406 28.996094 49.269531 28.839844 49.160156 28.613281 C 49.046875 28.386719 49.035156 28.15625 49.113281 27.914062 C 49.289062 27.414062 49.4375 26.90625 49.550781 26.386719 C 49.664062 25.867188 49.75 25.34375 49.796875 24.8125 C 49.847656 24.285156 49.867188 23.753906 49.851562 23.222656 C 49.835938 22.691406 49.789062 22.164062 49.710938 21.636719 C 49.632812 21.113281 49.519531 20.59375 49.378906 20.082031 C 49.234375 19.570312 49.0625 19.066406 48.855469 18.578125 C 48.652344 18.085938 48.417969 17.609375 48.15625 17.148438 C 47.890625 16.6875 47.601562 16.246094 47.285156 15.820312 C 46.96875 15.390625 46.625 14.988281 46.257812 14.605469 C 45.890625 14.21875 45.503906 13.859375 45.09375 13.523438 C 44.679688 13.1875 44.25 12.878906 43.800781 12.597656 C 43.351562 12.3125 42.886719 12.058594 42.410156 11.835938 C 41.929688 11.609375 41.4375 11.414062 40.933594 11.25 C 40.429688 11.085938 39.914062 10.949219 39.394531 10.847656 C 38.875 10.746094 38.351562 10.679688 37.820312 10.640625 C 37.292969 10.605469 36.761719 10.597656 36.234375 10.628906 C 35.703125 10.65625 35.179688 10.714844 34.65625 10.808594 C 34.132812 10.902344 33.621094 11.027344 33.113281 11.183594 C 32.605469 11.339844 32.113281 11.527344 31.628906 11.742188 C 31.144531 11.960938 30.675781 12.207031 30.222656 12.484375 C 29.769531 12.757812 29.332031 13.058594 28.917969 13.386719 C 28.5 13.71875 28.105469 14.070312 27.730469 14.449219 C 27.359375 14.824219 27.007812 15.222656 26.683594 15.644531 C 26.359375 16.066406 26.0625 16.503906 25.792969 16.960938 C 25.523438 17.417969 25.28125 17.890625 25.066406 18.378906 C 24.855469 18.863281 24.671875 19.363281 24.519531 19.871094 C 24.371094 20.382812 24.25 20.898438 24.160156 21.421875 C 24.074219 21.945312 24.019531 22.472656 23.996094 23.003906 C 23.96875 23.535156 23.980469 24.066406 24.019531 24.597656 C 24.0625 25.125 24.136719 25.652344 24.242188 26.171875 C 24.347656 26.695312 24.484375 27.207031 24.65625 27.710938 C 24.824219 28.214844 25.023438 28.707031 25.25 29.183594 C 25.480469 29.664062 25.738281 30.128906 26.023438 30.574219 C 26.308594 31.023438 26.621094 31.453125 26.960938 31.859375 C 27.296875 32.269531 27.660156 32.65625 28.046875 33.019531 C 28.433594 33.386719 28.839844 33.726562 29.265625 34.039062 C 29.695312 34.355469 30.140625 34.640625 30.601562 34.898438 C 31.066406 35.160156 31.542969 35.390625 32.03125 35.589844 C 32.523438 35.792969 33.023438 35.960938 33.535156 36.101562 C 34.046875 36.238281 34.566406 36.347656 35.089844 36.421875 C 35.617188 36.496094 36.144531 36.539062 36.675781 36.550781 C 37.203125 36.558594 37.734375 36.535156 38.261719 36.480469 C 38.789062 36.425781 39.308594 36.339844 39.824219 36.21875 C 40.34375 36.101562 40.851562 35.949219 41.347656 35.769531 C 41.847656 35.585938 42.332031 35.375 42.804688 35.132812 C 43.277344 34.890625 43.730469 34.621094 44.171875 34.324219 C 44.609375 34.023438 45.027344 33.703125 45.429688 33.351562 C 45.828125 33.003906 46.203125 32.628906 46.558594 32.234375 C 46.726562 32.042969 46.941406 31.941406 47.195312 31.925781 C 47.449219 31.914062 47.671875 31.992188 47.859375 32.160156 C 48.050781 32.332031 48.152344 32.546875 48.167969 32.800781 C 48.179688 33.054688 48.105469 33.277344 47.933594 33.46875 C 47.242188 34.242188 46.476562 34.9375 45.636719 35.550781 C 44.796875 36.167969 43.902344 36.6875 42.953125 37.109375 C 42.007812 37.535156 41.023438 37.855469 40.007812 38.074219 C 38.992188 38.292969 37.964844 38.402344 36.925781 38.402344 Z M 36.925781 38.402344 " fill-opacity="1" fill-rule="nonzero"/><path fill="#000000" d="M 59.078125 24.523438 L 55.386719 24.523438 C 55.128906 24.523438 54.914062 24.433594 54.734375 24.253906 C 54.550781 24.070312 54.460938 23.855469 54.460938 23.597656 C 54.460938 23.34375 54.550781 23.125 54.734375 22.945312 C 54.914062 22.761719 55.128906 22.671875 55.386719 22.671875 L 59.078125 22.671875 C 59.332031 22.671875 59.550781 22.761719 59.730469 22.945312 C 59.910156 23.125 60 23.34375 60 23.597656 C 60 23.855469 59.910156 24.070312 59.730469 24.253906 C 59.550781 24.433594 59.332031 24.523438 59.078125 24.523438 Z M 59.078125 24.523438 " fill-opacity="1" fill-rule="nonzero"/><path fill="#000000" d="M 49.980469 11.4375 C 49.792969 11.4375 49.621094 11.386719 49.46875 11.28125 C 49.3125 11.175781 49.199219 11.039062 49.128906 10.867188 C 49.054688 10.695312 49.039062 10.515625 49.074219 10.332031 C 49.109375 10.148438 49.195312 9.992188 49.328125 9.859375 L 51.9375 7.242188 C 52.117188 7.070312 52.335938 6.984375 52.585938 6.988281 C 52.835938 6.992188 53.046875 7.082031 53.226562 7.257812 C 53.402344 7.433594 53.492188 7.648438 53.496094 7.902344 C 53.5 8.152344 53.414062 8.367188 53.242188 8.550781 L 50.632812 11.167969 C 50.453125 11.347656 50.234375 11.4375 49.980469 11.4375 Z M 49.980469 11.4375 " fill-opacity="1" fill-rule="nonzero"/><g clip-path="url(#888af04aef)"><path fill="#000000" d="M 36.925781 6.019531 C 36.671875 6.019531 36.457031 5.925781 36.273438 5.746094 C 36.09375 5.566406 36.003906 5.347656 36.003906 5.09375 L 36.003906 1.390625 C 36.003906 1.136719 36.09375 0.917969 36.273438 0.738281 C 36.457031 0.554688 36.671875 0.464844 36.925781 0.464844 C 37.183594 0.464844 37.398438 0.554688 37.582031 0.738281 C 37.761719 0.917969 37.851562 1.136719 37.851562 1.390625 L 37.851562 5.09375 C 37.851562 5.347656 37.761719 5.566406 37.582031 5.746094 C 37.398438 5.925781 37.183594 6.019531 36.925781 6.019531 Z M 36.925781 6.019531 " fill-opacity="1" fill-rule="nonzero"/></g><path fill="#000000" d="M 23.875 11.4375 C 23.621094 11.4375 23.402344 11.347656 23.222656 11.167969 L 20.613281 8.550781 C 20.441406 8.367188 20.355469 8.152344 20.359375 7.902344 C 20.363281 7.648438 20.453125 7.433594 20.628906 7.257812 C 20.804688 7.082031 21.019531 6.992188 21.269531 6.988281 C 21.519531 6.984375 21.734375 7.070312 21.917969 7.242188 L 24.527344 9.859375 C 24.660156 9.992188 24.742188 10.148438 24.78125 10.332031 C 24.816406 10.515625 24.800781 10.695312 24.726562 10.867188 C 24.65625 11.039062 24.542969 11.175781 24.386719 11.28125 C 24.234375 11.386719 24.0625 11.4375 23.875 11.4375 Z M 23.875 11.4375 " fill-opacity="1" fill-rule="nonzero"/><path fill="#f6f6f6" d="M 49.847656 38.402344 C 49.847656 39.132812 49.777344 39.855469 49.636719 40.570312 C 49.492188 41.285156 49.285156 41.976562 49.003906 42.652344 C 48.726562 43.324219 48.386719 43.964844 47.980469 44.570312 C 47.578125 45.175781 47.117188 45.738281 46.605469 46.253906 C 46.089844 46.769531 45.53125 47.230469 44.925781 47.632812 C 44.320312 48.039062 43.683594 48.382812 43.011719 48.660156 C 42.339844 48.941406 41.648438 49.148438 40.933594 49.292969 C 40.21875 49.433594 39.5 49.503906 38.773438 49.503906 L 12.007812 49.503906 C 11.453125 49.507812 10.902344 49.460938 10.351562 49.371094 C 9.804688 49.28125 9.269531 49.144531 8.742188 48.964844 C 8.214844 48.785156 7.707031 48.566406 7.21875 48.300781 C 6.726562 48.039062 6.261719 47.738281 5.820312 47.398438 C 5.382812 47.058594 4.972656 46.6875 4.589844 46.28125 C 4.210938 45.875 3.867188 45.4375 3.558594 44.972656 C 3.25 44.511719 2.984375 44.027344 2.753906 43.519531 C 2.527344 43.011719 2.339844 42.488281 2.195312 41.949219 C 2.054688 41.410156 1.957031 40.863281 1.902344 40.308594 C 1.847656 39.753906 1.839844 39.199219 1.878906 38.644531 C 1.914062 38.089844 1.996094 37.539062 2.125 36.996094 C 2.25 36.457031 2.421875 35.925781 2.636719 35.414062 C 2.847656 34.898438 3.101562 34.40625 3.398438 33.933594 C 3.691406 33.460938 4.023438 33.015625 4.390625 32.597656 C 4.757812 32.179688 5.15625 31.792969 5.585938 31.441406 C 6.019531 31.089844 6.472656 30.777344 6.957031 30.5 C 5.316406 26.855469 7.976562 22.671875 12.007812 22.671875 C 12.582031 22.671875 13.140625 22.757812 13.6875 22.933594 C 13.941406 22.21875 14.253906 21.535156 14.628906 20.875 C 15.003906 20.21875 15.433594 19.597656 15.914062 19.015625 C 16.398438 18.433594 16.925781 17.898438 17.503906 17.40625 C 18.078125 16.917969 18.695312 16.484375 19.347656 16.101562 C 20 15.722656 20.679688 15.398438 21.386719 15.136719 C 22.097656 14.875 22.824219 14.679688 23.566406 14.542969 C 24.308594 14.410156 25.058594 14.34375 25.8125 14.339844 C 26.570312 14.335938 27.320312 14.402344 28.0625 14.53125 C 28.808594 14.660156 29.535156 14.855469 30.246094 15.109375 C 30.953125 15.367188 31.636719 15.6875 32.292969 16.0625 C 32.945312 16.441406 33.5625 16.871094 34.144531 17.359375 C 34.722656 17.84375 35.253906 18.375 35.742188 18.957031 C 36.226562 19.535156 36.660156 20.152344 37.039062 20.808594 C 37.414062 21.464844 37.734375 22.148438 37.992188 22.859375 C 38.25 23.570312 38.445312 24.300781 38.578125 25.042969 C 38.707031 25.789062 38.773438 26.542969 38.773438 27.300781 C 39.5 27.300781 40.21875 27.371094 40.933594 27.511719 C 41.648438 27.65625 42.339844 27.867188 43.011719 28.144531 C 43.683594 28.421875 44.320312 28.765625 44.925781 29.171875 C 45.53125 29.574219 46.089844 30.035156 46.605469 30.550781 C 47.117188 31.066406 47.578125 31.628906 47.980469 32.234375 C 48.386719 32.839844 48.726562 33.480469 49.003906 34.152344 C 49.285156 34.828125 49.492188 35.519531 49.636719 36.238281 C 49.777344 36.953125 49.847656 37.671875 49.847656 38.402344 Z M 49.847656 38.402344 " fill-opacity="1" fill-rule="nonzero"/><path fill="#dcdcdc" d="M 38.773438 46.730469 L 12.007812 46.730469 C 11.402344 46.730469 10.796875 46.675781 10.199219 46.566406 C 9.601562 46.457031 9.015625 46.296875 8.445312 46.082031 C 7.878906 45.871094 7.332031 45.605469 6.808594 45.292969 C 6.285156 44.980469 5.796875 44.625 5.335938 44.222656 C 4.878906 43.824219 4.460938 43.386719 4.078125 42.910156 C 3.699219 42.433594 3.363281 41.925781 3.074219 41.390625 C 2.785156 40.851562 2.546875 40.296875 2.359375 39.714844 C 2.167969 39.136719 2.035156 38.542969 1.949219 37.941406 C 1.851562 38.660156 1.828125 39.382812 1.886719 40.105469 C 1.941406 40.832031 2.074219 41.542969 2.28125 42.238281 C 2.488281 42.9375 2.765625 43.601562 3.117188 44.238281 C 3.464844 44.875 3.878906 45.46875 4.355469 46.015625 C 4.832031 46.5625 5.359375 47.054688 5.941406 47.488281 C 6.523438 47.921875 7.144531 48.292969 7.804688 48.59375 C 8.464844 48.894531 9.148438 49.121094 9.859375 49.273438 C 10.566406 49.429688 11.285156 49.503906 12.007812 49.503906 L 38.773438 49.503906 C 39.164062 49.507812 39.554688 49.484375 39.945312 49.445312 C 40.335938 49.402344 40.722656 49.339844 41.105469 49.257812 C 41.488281 49.175781 41.863281 49.070312 42.238281 48.949219 C 42.609375 48.828125 42.972656 48.683594 43.328125 48.523438 C 43.6875 48.359375 44.035156 48.179688 44.371094 47.984375 C 44.710938 47.785156 45.035156 47.566406 45.351562 47.335938 C 45.667969 47.101562 45.96875 46.851562 46.257812 46.585938 C 46.546875 46.320312 46.820312 46.042969 47.078125 45.746094 C 47.339844 45.453125 47.582031 45.144531 47.808594 44.824219 C 48.035156 44.503906 48.242188 44.171875 48.433594 43.828125 C 48.625 43.488281 48.800781 43.136719 48.953125 42.773438 C 49.109375 42.414062 49.242188 42.046875 49.359375 41.671875 C 49.472656 41.292969 49.570312 40.914062 49.644531 40.527344 C 49.71875 40.144531 49.773438 39.753906 49.808594 39.363281 C 49.839844 38.972656 49.855469 38.582031 49.847656 38.1875 C 49.839844 37.796875 49.8125 37.402344 49.761719 37.015625 C 49.679688 37.679688 49.535156 38.332031 49.335938 38.972656 C 49.132812 39.609375 48.875 40.226562 48.5625 40.820312 C 48.25 41.414062 47.886719 41.972656 47.472656 42.5 C 47.058594 43.027344 46.601562 43.511719 46.097656 43.953125 C 45.597656 44.398438 45.058594 44.792969 44.488281 45.136719 C 43.914062 45.484375 43.316406 45.777344 42.6875 46.011719 C 42.0625 46.25 41.421875 46.429688 40.761719 46.550781 C 40.105469 46.667969 39.441406 46.730469 38.773438 46.730469 Z M 38.773438 46.730469 " fill-opacity="1" fill-rule="nonzero"/><path fill="#000000" d="M 38.773438 50.429688 L 19.390625 50.429688 C 19.136719 50.429688 18.921875 50.339844 18.738281 50.160156 C 18.558594 49.980469 18.46875 49.761719 18.46875 49.503906 C 18.46875 49.25 18.558594 49.03125 18.738281 48.851562 C 18.921875 48.671875 19.136719 48.582031 19.390625 48.582031 L 38.773438 48.582031 C 39.441406 48.582031 40.101562 48.515625 40.753906 48.386719 C 41.40625 48.253906 42.042969 48.0625 42.660156 47.804688 C 43.273438 47.550781 43.859375 47.238281 44.414062 46.867188 C 44.96875 46.492188 45.480469 46.070312 45.953125 45.597656 C 46.421875 45.125 46.84375 44.613281 47.214844 44.058594 C 47.585938 43.5 47.898438 42.914062 48.152344 42.296875 C 48.40625 41.679688 48.601562 41.042969 48.730469 40.386719 C 48.859375 39.734375 48.925781 39.070312 48.925781 38.402344 C 48.925781 37.734375 48.859375 37.074219 48.730469 36.417969 C 48.601562 35.761719 48.40625 35.125 48.152344 34.507812 C 47.898438 33.890625 47.585938 33.304688 47.214844 32.746094 C 46.84375 32.191406 46.421875 31.679688 45.953125 31.207031 C 45.480469 30.734375 44.96875 30.3125 44.414062 29.941406 C 43.859375 29.570312 43.273438 29.253906 42.660156 29 C 42.042969 28.742188 41.40625 28.550781 40.753906 28.421875 C 40.101562 28.289062 39.441406 28.222656 38.773438 28.222656 C 38.519531 28.222656 38.300781 28.132812 38.121094 27.953125 C 37.941406 27.773438 37.851562 27.554688 37.851562 27.300781 C 37.851562 26.597656 37.789062 25.898438 37.667969 25.207031 C 37.546875 24.511719 37.367188 23.835938 37.125 23.175781 C 36.886719 22.515625 36.589844 21.878906 36.238281 21.273438 C 35.886719 20.664062 35.488281 20.089844 35.035156 19.550781 C 34.585938 19.011719 34.089844 18.519531 33.550781 18.066406 C 33.015625 17.617188 32.441406 17.214844 31.832031 16.863281 C 31.226562 16.515625 30.589844 16.21875 29.929688 15.980469 C 29.273438 15.742188 28.597656 15.5625 27.90625 15.441406 C 27.214844 15.320312 26.519531 15.261719 25.816406 15.265625 C 25.117188 15.265625 24.421875 15.328125 23.730469 15.453125 C 23.039062 15.578125 22.363281 15.761719 21.707031 16.003906 C 21.046875 16.246094 20.417969 16.546875 19.8125 16.898438 C 19.203125 17.253906 18.632812 17.660156 18.097656 18.113281 C 17.5625 18.566406 17.070312 19.066406 16.625 19.605469 C 16.175781 20.148438 15.777344 20.722656 15.429688 21.332031 C 15.082031 21.945312 14.792969 22.582031 14.554688 23.242188 C 14.472656 23.480469 14.316406 23.652344 14.09375 23.761719 C 13.871094 23.875 13.640625 23.890625 13.402344 23.8125 C 12.976562 23.679688 12.542969 23.605469 12.097656 23.597656 C 11.652344 23.589844 11.214844 23.644531 10.785156 23.761719 C 10.355469 23.878906 9.953125 24.058594 9.574219 24.292969 C 9.195312 24.527344 8.859375 24.8125 8.5625 25.144531 C 8.265625 25.480469 8.023438 25.847656 7.832031 26.25 C 7.644531 26.65625 7.515625 27.078125 7.445312 27.519531 C 7.378906 27.960938 7.375 28.402344 7.433594 28.84375 C 7.496094 29.285156 7.617188 29.710938 7.796875 30.117188 C 7.894531 30.335938 7.90625 30.558594 7.835938 30.78125 C 7.761719 31.007812 7.621094 31.179688 7.417969 31.300781 C 6.976562 31.550781 6.5625 31.835938 6.171875 32.15625 C 5.78125 32.476562 5.417969 32.828125 5.082031 33.207031 C 4.75 33.585938 4.449219 33.992188 4.179688 34.421875 C 3.914062 34.851562 3.679688 35.300781 3.488281 35.765625 C 3.292969 36.234375 3.136719 36.714844 3.023438 37.207031 C 2.90625 37.699219 2.832031 38.199219 2.796875 38.707031 C 2.761719 39.210938 2.769531 39.714844 2.820312 40.21875 C 2.867188 40.722656 2.957031 41.21875 3.085938 41.710938 C 3.21875 42.199219 3.386719 42.675781 3.59375 43.136719 C 3.800781 43.597656 4.046875 44.039062 4.328125 44.460938 C 4.605469 44.882812 4.921875 45.277344 5.265625 45.648438 C 5.609375 46.019531 5.984375 46.355469 6.382812 46.664062 C 6.785156 46.972656 7.207031 47.246094 7.652344 47.488281 C 8.097656 47.726562 8.558594 47.925781 9.039062 48.089844 C 9.515625 48.253906 10.003906 48.375 10.503906 48.457031 C 11.003906 48.539062 11.503906 48.582031 12.007812 48.582031 L 15.699219 48.582031 C 15.957031 48.582031 16.171875 48.671875 16.351562 48.851562 C 16.535156 49.03125 16.625 49.25 16.625 49.503906 C 16.625 49.761719 16.535156 49.980469 16.351562 50.160156 C 16.171875 50.339844 15.957031 50.429688 15.699219 50.429688 L 12.007812 50.429688 C 11.417969 50.429688 10.832031 50.382812 10.25 50.289062 C 9.667969 50.195312 9.097656 50.058594 8.539062 49.871094 C 7.980469 49.6875 7.4375 49.457031 6.914062 49.1875 C 6.390625 48.914062 5.890625 48.601562 5.417969 48.25 C 4.945312 47.898438 4.5 47.511719 4.089844 47.089844 C 3.675781 46.667969 3.300781 46.214844 2.960938 45.730469 C 2.621094 45.25 2.320312 44.742188 2.0625 44.210938 C 1.804688 43.679688 1.585938 43.132812 1.414062 42.566406 C 1.242188 42 1.117188 41.425781 1.039062 40.839844 C 0.957031 40.253906 0.921875 39.667969 0.9375 39.078125 C 0.949219 38.484375 1.011719 37.898438 1.117188 37.316406 C 1.222656 36.738281 1.375 36.167969 1.574219 35.609375 C 1.769531 35.054688 2.011719 34.515625 2.292969 33.996094 C 2.578125 33.480469 2.898438 32.988281 3.261719 32.519531 C 3.621094 32.054688 4.015625 31.617188 4.449219 31.214844 C 4.878906 30.8125 5.339844 30.445312 5.828125 30.113281 C 4.425781 25.519531 8.367188 21.015625 13.121094 21.84375 C 13.425781 21.128906 13.785156 20.449219 14.203125 19.796875 C 14.621094 19.144531 15.089844 18.53125 15.609375 17.957031 C 16.128906 17.382812 16.695312 16.859375 17.300781 16.378906 C 17.910156 15.902344 18.554688 15.476562 19.230469 15.105469 C 19.910156 14.734375 20.617188 14.425781 21.347656 14.171875 C 22.078125 13.917969 22.824219 13.730469 23.585938 13.601562 C 24.347656 13.476562 25.117188 13.414062 25.890625 13.414062 C 26.664062 13.417969 27.429688 13.484375 28.191406 13.617188 C 28.953125 13.746094 29.699219 13.941406 30.429688 14.195312 C 31.160156 14.453125 31.863281 14.769531 32.539062 15.140625 C 33.214844 15.515625 33.855469 15.945312 34.460938 16.425781 C 35.066406 16.910156 35.628906 17.4375 36.144531 18.015625 C 36.660156 18.589844 37.128906 19.207031 37.542969 19.859375 C 37.957031 20.515625 38.3125 21.199219 38.613281 21.914062 C 38.914062 22.628906 39.152344 23.363281 39.328125 24.117188 C 39.503906 24.871094 39.617188 25.632812 39.667969 26.40625 C 40.433594 26.464844 41.1875 26.59375 41.929688 26.796875 C 42.671875 27 43.386719 27.273438 44.078125 27.613281 C 44.765625 27.953125 45.417969 28.359375 46.03125 28.824219 C 46.640625 29.292969 47.203125 29.8125 47.71875 30.386719 C 48.230469 30.960938 48.683594 31.578125 49.078125 32.242188 C 49.46875 32.902344 49.796875 33.597656 50.058594 34.324219 C 50.320312 35.046875 50.507812 35.792969 50.628906 36.554688 C 50.746094 37.316406 50.789062 38.082031 50.761719 38.851562 C 50.734375 39.621094 50.632812 40.382812 50.457031 41.132812 C 50.28125 41.882812 50.039062 42.609375 49.722656 43.316406 C 49.410156 44.019531 49.03125 44.6875 48.589844 45.316406 C 48.148438 45.949219 47.648438 46.53125 47.097656 47.066406 C 46.542969 47.601562 45.941406 48.078125 45.296875 48.496094 C 44.652344 48.914062 43.972656 49.269531 43.261719 49.558594 C 42.546875 49.847656 41.8125 50.0625 41.058594 50.210938 C 40.304688 50.359375 39.542969 50.429688 38.773438 50.429688 Z M 38.773438 50.429688 " fill-opacity="1" fill-rule="nonzero"/><path fill="#000000" d="M 31.878906 29.660156 C 31.738281 29.449219 31.695312 29.21875 31.746094 28.96875 C 31.796875 28.714844 31.925781 28.519531 32.140625 28.378906 C 34.148438 27.039062 36.359375 26.371094 38.773438 26.375 C 39.027344 26.375 39.246094 26.464844 39.425781 26.644531 C 39.605469 26.824219 39.695312 27.042969 39.695312 27.300781 C 39.695312 27.554688 39.605469 27.773438 39.425781 27.953125 C 39.246094 28.132812 39.027344 28.222656 38.773438 28.222656 C 36.730469 28.222656 34.859375 28.785156 33.160156 29.921875 C 32.949219 30.0625 32.71875 30.109375 32.46875 30.058594 C 32.21875 30.007812 32.023438 29.875 31.878906 29.660156 Z M 31.878906 29.660156 " fill-opacity="1" fill-rule="nonzero"/><path fill="#000000" d="M 16.808594 26.375 C 16.453125 26.375 16.183594 26.21875 16.007812 25.910156 C 15.410156 24.875 14.542969 24.175781 13.40625 23.8125 C 13.164062 23.734375 12.984375 23.582031 12.867188 23.355469 C 12.75 23.128906 12.730469 22.894531 12.808594 22.648438 C 12.886719 22.40625 13.039062 22.226562 13.265625 22.109375 C 13.492188 21.992188 13.726562 21.972656 13.96875 22.050781 C 14.738281 22.296875 15.433594 22.671875 16.0625 23.175781 C 16.6875 23.683594 17.203125 24.285156 17.605469 24.984375 C 17.6875 25.128906 17.726562 25.28125 17.726562 25.449219 C 17.726562 25.613281 17.6875 25.765625 17.605469 25.910156 C 17.523438 26.054688 17.410156 26.167969 17.269531 26.25 C 17.125 26.332031 16.972656 26.375 16.808594 26.375 Z M 16.808594 26.375 " fill-opacity="1" fill-rule="nonzero"/><path fill="#a8edfd" d="M 27.699219 56.90625 C 27.699219 55.886719 26.871094 53.207031 25.851562 53.207031 C 24.832031 53.207031 24.007812 55.886719 24.007812 56.90625 C 24.007812 57.152344 24.054688 57.390625 24.148438 57.617188 C 24.242188 57.84375 24.375 58.042969 24.546875 58.214844 C 24.71875 58.390625 24.921875 58.523438 25.144531 58.617188 C 25.371094 58.710938 25.609375 58.757812 25.851562 58.757812 C 26.097656 58.757812 26.332031 58.710938 26.558594 58.617188 C 26.785156 58.523438 26.984375 58.390625 27.15625 58.214844 C 27.332031 58.042969 27.464844 57.84375 27.558594 57.617188 C 27.652344 57.390625 27.699219 57.152344 27.699219 56.90625 Z M 27.699219 56.90625 " fill-opacity="1" fill-rule="nonzero"/><g clip-path="url(#77156ee4b2)"><path fill="#000000" d="M 25.851562 59.683594 C 25.484375 59.683594 25.132812 59.613281 24.792969 59.472656 C 24.453125 59.332031 24.15625 59.132812 23.894531 58.871094 C 23.636719 58.609375 23.433594 58.308594 23.292969 57.96875 C 23.152344 57.628906 23.085938 57.277344 23.085938 56.90625 C 23.085938 55.832031 23.945312 52.28125 25.851562 52.28125 C 27.757812 52.28125 28.621094 55.832031 28.621094 56.90625 C 28.621094 57.277344 28.550781 57.628906 28.410156 57.96875 C 28.269531 58.308594 28.070312 58.609375 27.808594 58.871094 C 27.550781 59.132812 27.25 59.332031 26.914062 59.472656 C 26.574219 59.613281 26.21875 59.683594 25.851562 59.683594 Z M 25.851562 54.210938 C 25.457031 54.652344 24.929688 56.144531 24.929688 56.90625 C 24.929688 57.164062 25.019531 57.382812 25.199219 57.5625 C 25.378906 57.742188 25.597656 57.832031 25.851562 57.832031 C 26.109375 57.832031 26.324219 57.742188 26.503906 57.5625 C 26.683594 57.382812 26.777344 57.164062 26.777344 56.90625 C 26.777344 56.144531 26.25 54.652344 25.851562 54.210938 Z M 25.851562 54.210938 " fill-opacity="1" fill-rule="nonzero"/></g><path fill="#a8edfd" d="M 15.699219 56.90625 C 15.699219 55.886719 14.875 53.207031 13.855469 53.207031 C 12.835938 53.207031 12.007812 55.886719 12.007812 56.90625 C 12.007812 57.152344 12.054688 57.390625 12.148438 57.617188 C 12.242188 57.84375 12.375 58.042969 12.550781 58.214844 C 12.722656 58.390625 12.921875 58.523438 13.148438 58.617188 C 13.375 58.710938 13.609375 58.757812 13.855469 58.757812 C 14.101562 58.757812 14.335938 58.710938 14.5625 58.617188 C 14.789062 58.523438 14.988281 58.390625 15.160156 58.214844 C 15.332031 58.042969 15.464844 57.84375 15.558594 57.617188 C 15.652344 57.390625 15.699219 57.152344 15.699219 56.90625 Z M 15.699219 56.90625 " fill-opacity="1" fill-rule="nonzero"/><g clip-path="url(#95b5c01570)"><path fill="#000000" d="M 13.855469 59.683594 C 13.488281 59.683594 13.132812 59.613281 12.796875 59.472656 C 12.457031 59.332031 12.15625 59.132812 11.898438 58.871094 C 11.636719 58.609375 11.4375 58.308594 11.296875 57.96875 C 11.15625 57.628906 11.085938 57.277344 11.085938 56.90625 C 11.085938 55.832031 11.949219 52.28125 13.855469 52.28125 C 15.761719 52.28125 16.625 55.832031 16.625 56.90625 C 16.625 57.277344 16.554688 57.628906 16.414062 57.96875 C 16.273438 58.308594 16.074219 58.609375 15.8125 58.871094 C 15.554688 59.132812 15.253906 59.332031 14.914062 59.472656 C 14.574219 59.613281 14.222656 59.683594 13.855469 59.683594 Z M 13.855469 54.210938 C 13.460938 54.652344 12.933594 56.144531 12.933594 56.90625 C 12.933594 57.164062 13.023438 57.382812 13.203125 57.5625 C 13.382812 57.742188 13.601562 57.832031 13.855469 57.832031 C 14.109375 57.832031 14.328125 57.742188 14.507812 57.5625 C 14.6875 57.382812 14.777344 57.164062 14.777344 56.90625 C 14.777344 56.144531 14.25 54.652344 13.855469 54.210938 Z M 13.855469 54.210938 " fill-opacity="1" fill-rule="nonzero"/></g><path fill="#a8edfd" d="M 39.695312 56.90625 C 39.695312 55.886719 38.871094 53.207031 37.851562 53.207031 C 36.832031 53.207031 36.003906 55.886719 36.003906 56.90625 C 36.003906 57.152344 36.050781 57.390625 36.144531 57.617188 C 36.238281 57.84375 36.371094 58.042969 36.546875 58.214844 C 36.71875 58.390625 36.917969 58.523438 37.144531 58.617188 C 37.371094 58.710938 37.605469 58.757812 37.851562 58.757812 C 38.09375 58.757812 38.332031 58.710938 38.558594 58.617188 C 38.78125 58.523438 38.984375 58.390625 39.15625 58.214844 C 39.328125 58.042969 39.460938 57.84375 39.554688 57.617188 C 39.648438 57.390625 39.695312 57.152344 39.695312 56.90625 Z M 39.695312 56.90625 " fill-opacity="1" fill-rule="nonzero"/><g clip-path="url(#f58731c421)"><path fill="#000000" d="M 37.851562 59.683594 C 37.484375 59.683594 37.128906 59.613281 36.789062 59.472656 C 36.453125 59.332031 36.152344 59.132812 35.894531 58.871094 C 35.632812 58.609375 35.433594 58.308594 35.292969 57.96875 C 35.152344 57.628906 35.082031 57.277344 35.082031 56.90625 C 35.082031 55.832031 35.945312 52.28125 37.851562 52.28125 C 39.757812 52.28125 40.617188 55.832031 40.617188 56.90625 C 40.617188 57.277344 40.550781 57.628906 40.410156 57.96875 C 40.269531 58.308594 40.066406 58.609375 39.808594 58.871094 C 39.546875 59.132812 39.25 59.332031 38.910156 59.472656 C 38.570312 59.613281 38.21875 59.683594 37.851562 59.683594 Z M 37.851562 54.210938 C 37.453125 54.652344 36.925781 56.144531 36.925781 56.90625 C 36.925781 57.164062 37.019531 57.382812 37.199219 57.5625 C 37.378906 57.742188 37.59375 57.832031 37.851562 57.832031 C 38.105469 57.832031 38.324219 57.742188 38.503906 57.5625 C 38.683594 57.382812 38.773438 57.164062 38.773438 56.90625 C 38.773438 56.144531 38.246094 54.652344 37.851562 54.210938 Z M 37.851562 54.210938 " fill-opacity="1" fill-rule="nonzero"/></g></svg>